<svg xmlns="http://www.w3.org/2000/svg" viewBox="0 0 526.39 160.77"><defs><style>.cls-1{fill:#fff;}.cls-2{fill:none;}</style></defs><g id="Capa_2" data-name="Capa 2"><g id="Capa_1-2" data-name="Capa 1"><polygon class="cls-1" points="168.38 93.25 148.6 93.25 148.6 113.47 136.25 113.47 136.25 62 148.6 62 148.6 81.41 168.38 81.41 168.38 62 180.73 62 180.73 113.47 168.38 113.47 168.38 93.25"/><path class="cls-1" d="M226.94,93.77c0,13.32-7.7,20.58-19.25,20.58s-19.25-7.26-19.25-20.58V69.29h10.73V93.46c0,7.57,2.9,10.85,8.65,10.85s8.65-3.28,8.65-10.85V69.29h10.47Z"/><path class="cls-1" d="M268,102.67c0-10.48.13-15.65.13-15.71H268c-.07.06-2.21,4-4.35,7.83l-4.29,7.76h-5.94l-4.29-7.64c-2.21-3.91-4.29-7.89-4.35-8h-.2c0,.06.14,5.23.14,15.71v10.79H234.1V69.29h11.23L256.44,89h.19L267.8,69.29h10.79v44.17H268Z"/><path class="cls-1" d="M308.5,87.72c-1.39-3.67-2.4-6.44-2.46-6.51h-.19c-.06.07-1.07,2.78-2.46,6.44l-3.16,8.84h11.43Zm-11.74,18.43-2.65,7.32H282.94l17-44.19H312l17.1,44.19H317.78l-2.65-7.32Z"/><path class="cls-1" d="M344.72,87.08h-.19c0,.07.13,5.49.13,11.24v15.15H334.05V69.28h10.73l18.81,25.88h.19c0-.06-.06-5.74-.06-10.54V69.28h10.6v44.19h-10.8Z"/><path class="cls-1" d="M388.55,71.63h-.15c0,.08.15,6,.15,12.35v29.49h-6V62h6l30.14,41.47h.15c0-.08-.15-6.11-.15-12.06V62h6v51.47h-6.1Z"/><polygon class="cls-1" points="432.5 69.29 462.23 69.29 462.23 74.08 437.62 74.08 437.62 87.97 456.81 87.97 456.81 92.76 437.62 92.76 437.62 108.67 462.36 108.67 462.36 113.46 432.5 113.46 432.5 69.29"/><polygon class="cls-1" points="486.48 74.08 486.48 113.47 481.3 113.47 481.3 74.08 466.15 74.08 466.15 69.28 501.68 69.28 501.68 74.08 486.48 74.08"/><path class="cls-1" d="M149.73,129c0,4.9-2.66,7.09-6.73,7.09s-6.71-2.19-6.71-7.09v-7.81h3.5v8.11c0,2.54,1.1,3.66,3.26,3.66s3.27-1.12,3.27-3.66v-8.11h3.41Z"/><path class="cls-1" d="M164.19,135.78l-6.58-9.32h-.08s.06,1.59.06,3.26v6.06h-3.45V121.16h3.55l6.58,9.06h.08s0-1.38,0-2.87v-6.19h3.44v14.62Z"/><rect class="cls-1" x="172.36" y="121.16" width="3.44" height="14.61"/><path class="cls-1" d="M192.34,129.22v-3h-.07l-3.1,6h-2.23l-3.18-6.21h-.08v9.73h-3.31V121.16h4.17l2.33,4.28c.81,1.49,1.33,2.59,1.35,2.59h.08s.58-1.1,1.38-2.61l2.28-4.26h3.83v14.62h-3.45Z"/><path class="cls-1" d="M207.38,132.93a4.45,4.45,0,1,0-4.34-4.46A4.2,4.2,0,0,0,207.38,132.93Zm0-12.05a7.59,7.59,0,1,1-7.83,7.59A7.47,7.47,0,0,1,207.38,120.88Z"/><path class="cls-1" d="M221.21,131.29c.18,1,1.12,2.11,3.18,2.11,1.44,0,2.37-.52,2.37-1.72,0-1.64-1.74-1.7-4.38-2.3-1.91-.44-4-1.2-4-4.09s2.17-4.41,5.69-4.41c3.29,0,5.4,1.25,6.08,3.62l-3,.81c-.31-1.07-1.28-1.77-2.87-1.77s-2.35.57-2.35,1.59c0,1.25,1.26,1.46,3.6,1.93,1.93.39,4.78,1.18,4.78,4.54,0,3.18-2.53,4.46-5.9,4.46-2.56,0-5.64-.72-6.28-3.94Z"/><polygon class="cls-1" points="249.31 124.37 249.31 135.77 245.87 135.77 245.87 124.37 241.06 124.37 241.06 121.16 254.11 121.16 254.11 124.37 249.31 124.37"/><path class="cls-1" d="M263.14,127.51c-.83-2.4-1.15-3.48-1.17-3.53h-.08l-1.25,3.68-.74,2.17H264Zm-4.23,5.27-1,3h-3.53l5.46-14.62h4.25l5.45,14.62H266l-1.05-3Z"/><polygon class="cls-1" points="272.93 121.16 276.37 121.16 276.37 132.57 283.19 132.57 283.19 135.78 272.93 135.78 272.93 121.16"/><polygon class="cls-1" points="286.99 121.16 298.08 121.16 298.08 124.38 290.43 124.38 290.43 126.8 296.05 126.8 296.05 129.85 290.43 129.85 290.43 132.57 298.21 132.57 298.21 135.78 286.99 135.78 286.99 121.16"/><path class="cls-1" d="M312.36,135.78l-6.58-9.32h-.08s.06,1.59.06,3.26v6.06h-3.44V121.16h3.54l6.58,9.06h.07s0-1.38,0-2.87v-6.19h3.44v14.62Z"/><polygon class="cls-1" points="327.98 124.37 327.98 135.77 324.54 135.77 324.54 124.37 319.75 124.37 319.75 121.16 332.79 121.16 332.79 124.37 327.98 124.37"/><path class="cls-1" d="M342.82,132.93a4.45,4.45,0,1,0-4.34-4.46A4.19,4.19,0,0,0,342.82,132.93Zm0-12.05a7.59,7.59,0,1,1,0,15.18c-4.53,0-7.85-3.15-7.85-7.59A7.47,7.47,0,0,1,342.82,120.88Z"/><path class="cls-1" d="M366.35,135.78v-5.33l-5.43-9.29h3.94l1.8,3.16c.86,1.54,1.54,2.82,1.57,2.84h.08s.7-1.3,1.56-2.87l1.8-3.13h3.55l-5.45,9.29v5.33Z"/><polygon class="cls-1" points="393.8 124.37 393.8 135.77 390.36 135.77 390.36 124.37 385.56 124.37 385.56 121.16 398.6 121.16 398.6 124.37 393.8 124.37"/><path class="cls-1" d="M408.31,128.13c1.56,0,2.37-.68,2.37-1.93s-.81-1.93-2.37-1.93h-2.45v3.86Zm-.1,2.64c-.34,0-1.18,0-1.41,0h-.94v5h-3.44V121.16h5.68c3.86,0,6.08,1.85,6.08,4.83a4.07,4.07,0,0,1-2.74,4.1l3.47,5.69H411.2Z"/><path class="cls-1" d="M426.19,127.51c-.84-2.4-1.15-3.48-1.18-3.53h-.08l-1.25,3.68-.74,2.17H427ZM422,132.78l-1,3h-3.52l5.45-14.62h4.26l5.44,14.62H429l-1-3Z"/><path class="cls-1" d="M442.36,132.93c1.28,0,2-.62,2-1.64s-.81-1.7-2.06-1.7h-2.93v3.34Zm-.49-6c1.1,0,1.82-.53,1.82-1.49,0-.78-.57-1.46-1.82-1.46h-2.46V127Zm3.23,1.09a3.63,3.63,0,0,1,2.87,3.5c0,2.21-1.72,4.23-5.43,4.23H436V121.16h6.55c2.74,0,4.65,1.83,4.65,3.84a3,3,0,0,1-2.07,3Z"/><path class="cls-1" d="M459.19,127.51c-.83-2.4-1.14-3.48-1.17-3.53H458l-1.27,3.68-.73,2.17H460ZM455,132.78l-1,3h-3.52l5.45-14.62h4.25l5.46,14.62H462l-1.05-3Z"/><path class="cls-1" d="M478,129.33c0,4.36-2,6.73-6,6.73a5.45,5.45,0,0,1-4.13-1.49l1.89-2.48a2.92,2.92,0,0,0,2.21.84c2.17,0,2.64-1.25,2.64-3.81v-8H478Z"/><path class="cls-1" d="M489.47,132.93a4.45,4.45,0,1,0-4.34-4.46A4.19,4.19,0,0,0,489.47,132.93Zm0-12.05a7.59,7.59,0,1,1-7.83,7.59A7.47,7.47,0,0,1,489.47,120.88Z"/><path class="cls-1" d="M88.9,136a1.62,1.62,0,0,1-.43-3.18c4.88-1.33,11.43-4.22,14.91-10.39a30.28,30.28,0,0,0,3.46-13.08,120.56,120.56,0,0,0-.08-12.17c0-1-.08-2-.11-2.93a17.11,17.11,0,0,1-9.13-1.78c-5.59-2.77-9.12-10.18-10.48-22a133.39,133.39,0,0,1-.63-14.61c0-3,0-6.09-.18-9.1l0-.42c-.49-10.06-2-15.73-4.49-16.85-.84-.38-2,.32-2.61,1.19-3.1,4.82-1.54,12.67-.4,18.4l.26,1.3c.2,1,.4,2,.61,3,1.28,6.28,2.59,12.78,2,19.41-.21,2.34-1.71,2.75-2.16,2.82-1.26.2-2.49-.66-3.14-2.19C74,68.05,72,62.39,70,56.92,69,53.86,67.84,50.7,66.7,47.64c-.22-.57-.44-1.18-.67-1.82C63.62,39.22,60,29.25,53.43,28a2.77,2.77,0,0,0-2.75.78c-.57.91-.07,2.43.49,3.81,1.22,3,2.56,6.07,3.86,9C60.11,53.2,65.35,65.16,65.37,78c0,2-.64,3.35-1.9,4a2.88,2.88,0,0,1-2.53,0c-1.47-.66-2.4-2.47-2.78-3.93a55.48,55.48,0,0,0-15.28-26,22.62,22.62,0,0,0-7.55-5.17c-1.37-.49-3-.62-3.69.22-1,1.33,1.1,3.93,2.06,5A100.87,100.87,0,0,1,55.77,91.65a1.63,1.63,0,0,1-2.55,1.73l-18.15-14a12,12,0,0,0-3.72-2.23,3,3,0,0,0-2.93.55c-1,1.12-.27,3.29.87,4.94,2.05,3,4.86,5.32,7.83,7.79,1.19,1,2.41,2,3.58,3.07,7.42,6.74,12.66,15.31,16.81,22.81l.11.19c3.43,6.19,7,12.6,13.14,14.68,6.67,2.26,13.66-1.73,17.32-6.39a16.66,16.66,0,0,0,3.59-12,8.93,8.93,0,0,0-3.8-6.25,7.52,7.52,0,0,0-8.6,0c-4.17,3.19-2.56,9.31-.47,13.89a1.62,1.62,0,0,1-3,1.34c-3.69-8.09-3.19-14.25,1.45-17.8a10.74,10.74,0,0,1,12.44-.09,12.19,12.19,0,0,1,5.13,8.43,19.69,19.69,0,0,1-4.25,14.43c-5.31,6.76-13.9,9.83-20.9,7.46-7.35-2.49-11.38-9.76-14.94-16.18l-.1-.19c-4-7.27-9.09-15.56-16.16-22-1.11-1-2.31-2-3.47-3-3-2.5-6.12-5.09-8.43-8.44-1.79-2.61-2.9-6.31-.65-8.91A6.08,6.08,0,0,1,32.24,74a14.69,14.69,0,0,1,4.81,2.79L51.1,87.65A97.64,97.64,0,0,0,31.3,54.26c-4.14-4.56-3.5-7.48-2.23-9.14,1.76-2.27,5-2.15,7.36-1.28a25.5,25.5,0,0,1,8.69,5.87A58.67,58.67,0,0,1,61.29,77.24a4.26,4.26,0,0,0,.77,1.59,4.55,4.55,0,0,0,.07-.84c0-12.15-5.13-23.79-10.06-35-1.31-3-2.66-6.07-3.9-9.12-.87-2.13-1.58-4.6-.24-6.75s4-2.64,6.11-2.24c8.35,1.58,12.37,12.6,15,19.88l.66,1.79c1.16,3.09,2.28,6.27,3.36,9.34,1.69,4.8,3.43,9.74,5.37,14.48.15-5.43-1-10.93-2.06-16.26C76.2,53,76,52,75.79,51l-.25-1.29c-1.25-6.27-3-14.86.84-20.78,1.33-2.06,4.18-3.51,6.67-2.39,4.92,2.22,6,11.66,6.39,19.64l0,.41c.16,3.09.18,6.22.19,9.25a133.28,133.28,0,0,0,.6,14.25C91.47,80.6,94.48,87.34,99,89.56a13.89,13.89,0,0,0,7.6,1.42c-.1-7,.38-14,3.43-20.71a16.1,16.1,0,0,1,5.31-6.88,8.48,8.48,0,0,1,9-.67,9.68,9.68,0,0,1,5,8.66c0,3.22-1.2,6.48-3.77,10.28-3.8,5.61-9.4,10.36-15.61,12,0,1.12.08,2.24.13,3.37a124,124,0,0,1,.07,12.5A33.26,33.26,0,0,1,106.2,124c-4,7.14-11.4,10.42-16.87,11.91A1.65,1.65,0,0,1,88.9,136Zm31.46-71a5.72,5.72,0,0,0-3.23,1.07A12.8,12.8,0,0,0,113,71.61c-2.72,6-3.23,12.2-3.16,18.7,5.12-1.61,9.78-5.7,13-10.46C125,76.61,126,73.92,126,71.38a6.42,6.42,0,0,0-3.28-5.79A5.05,5.05,0,0,0,120.36,65Z"/><rect class="cls-2" width="526.39" height="160.77"/></g></g></svg>